<?xml version="1.0" standalone="no"?>
<!DOCTYPE svg PUBLIC "-//W3C//DTD SVG 20010904//EN"
 "http://www.w3.org/TR/2001/REC-SVG-20010904/DTD/svg10.dtd">
<svg version="1.0" xmlns="http://www.w3.org/2000/svg"
 width="1024.000000pt" height="1024.000000pt" viewBox="0 0 1024.000000 1024.000000"
 preserveAspectRatio="xMidYMid meet">

<g transform="translate(0.000000,1024.000000) scale(0.100000,-0.100000)"
fill="#0078A8" stroke="none">
<path d="M5085 8899 c-216 -219 -647 -513 -994 -677 -337 -158 -667 -264 -986
-313 -254 -40 -667 -37 -953 7 -57 9 -106 14 -108 11 -8 -8 92 -117 174 -190
101 -90 177 -143 308 -216 607 -336 1293 -303 1866 88 285 194 490 409 688
719 36 56 67 102 70 102 3 0 16 -19 29 -43 13 -23 86 -130 162 -238 312 -445
405 -615 464 -853 66 -270 55 -531 -35 -806 -138 -421 -484 -802 -990 -1092
-131 -75 -278 -149 -525 -263 -621 -288 -783 -370 -974 -495 -285 -187 -508
-408 -684 -675 -108 -165 -237 -437 -237 -500 0 -26 178 -305 288 -450 222
-294 489 -566 797 -811 91 -73 357 -264 367 -264 3 0 -10 58 -28 130 -48 192
-67 353 -67 575 0 384 70 687 237 1030 263 537 777 1058 1611 1632 302 207
592 381 1190 713 556 309 774 452 1011 665 288 258 524 656 574 968 11 67 7
108 -17 210 -19 76 -16 75 -120 53 -190 -40 -644 -46 -893 -12 -291 40 -634
132 -892 239 -382 159 -907 495 -1179 754 -42 40 -78 73 -80 73 -3 0 -36 -32
-74 -71z"/>
<path d="M4890 7624 c-94 -41 -130 -109 -141 -264 -8 -130 -25 -184 -93 -300
-49 -84 -133 -182 -235 -272 -276 -246 -723 -384 -1129 -349 -225 20 -397 68
-577 159 -258 132 -482 355 -610 611 -43 86 -125 324 -125 363 0 15 -4 29 -8
32 -10 6 -101 -351 -136 -539 -38 -197 -43 -232 -73 -475 -27 -218 -28 -240
-27 -690 1 -256 5 -486 10 -511 l9 -45 120 68 c181 102 345 167 567 223 165
42 318 64 698 100 626 60 882 115 1175 255 411 195 692 479 833 840 44 113 52
173 52 413 0 221 -1 229 -24 275 -29 56 -59 86 -108 107 -47 19 -132 19 -178
-1z"/>
<path d="M8530 5855 c-129 -150 -334 -319 -521 -430 -59 -35 -232 -126 -385
-204 -391 -196 -520 -284 -700 -474 -170 -180 -264 -333 -379 -619 -119 -299
-212 -464 -356 -634 -137 -162 -256 -262 -576 -484 -126 -87 -280 -237 -376
-365 -103 -138 -187 -317 -237 -510 -42 -158 -36 -530 10 -696 10 -36 13 -37
76 -49 36 -7 67 -10 71 -7 3 3 14 46 24 96 48 233 156 487 293 691 103 151
181 244 321 378 438 422 1071 745 1693 866 141 28 369 56 449 56 l52 0 34 58
c89 147 236 470 303 666 150 437 239 876 263 1301 13 224 19 435 11 435 -3 0
-34 -34 -70 -75z"/>
<path d="M5505 4983 c-43 -22 -94 -73 -115 -113 -14 -28 -19 -72 -24 -214 -8
-202 -20 -250 -86 -338 -67 -88 -133 -134 -328 -229 -101 -49 -216 -110 -255
-135 -88 -57 -229 -193 -306 -294 -50 -66 -160 -260 -147 -260 2 0 32 29 66
64 122 127 328 250 530 316 52 17 160 44 240 61 242 50 375 106 499 209 107
89 204 243 230 368 14 67 14 375 0 425 -13 49 -73 115 -124 138 -49 23 -139
24 -180 2z"/>
<path d="M7295 2733 c-505 -65 -926 -245 -1280 -546 -135 -115 -236 -231 -355
-407 -73 -109 -178 -315 -167 -327 6 -6 201 60 337 115 557 222 1121 606 1536
1049 l116 123 -79 -1 c-43 -1 -91 -4 -108 -6z"/>
</g>
</svg>
